<svg xmlns="http://www.w3.org/2000/svg" viewBox="0 0 100 100" width="100" height="100">
  <!-- silo -->
  <rect x="30" y="9" width="10" height="9" rx="2.500" fill="#0667C4"/>
  <path d="M7 38 L32.500 16.500 Q35 14.500 37.500 16.500 L63 38 Z" fill="#088BF5"/>
  <rect x="12" y="38" width="46" height="51" rx="3" fill="#2EBCFA"/>
  <rect x="12" y="49" width="46" height="3" fill="#088BF5" opacity=".6"/>
  <rect x="12" y="62" width="46" height="3" fill="#088BF5" opacity=".6"/>
  <rect x="12" y="75" width="46" height="3" fill="#088BF5" opacity=".6"/>
  <!-- llama -->
  <path d="M77 40 C79 53 95 59 95 74 C95 83 87.500 89 78.500 89 C69.500 89 62 83 62 74 C62 66 66.500 62 68.500 54 C71.500 57 73 60 74 63 C76.500 56 76 47 77 40 Z" fill="#F9464C"/>
  <path d="M78.500 65 C79.500 71 86.500 73.500 86.500 80 C86.500 84.500 83 87.500 78.500 87.500 C74 87.500 70.500 84.500 70.500 80 C70.500 74 77.500 71 78.500 65 Z" fill="#FBB945"/>
</svg>
